<svg preserveAspectRatio="none" overflow="visible" style="display: block;" width="123" height="46" viewBox="0 0 123 46" fill="none" xmlns="http://www.w3.org/2000/svg">
<g id="Frame 2147230111">
<path id="basement" d="M11.5438 21.1846C11.952 19.4682 13.0281 18.9883 15.2546 18.9883C18.5571 18.9883 19.3178 19.8004 19.3178 23.9347V25.5404C19.3178 29.6562 18.5386 30.4867 15.069 30.4867C13.0095 30.4867 11.8035 29.527 11.451 27.6075V30.2653H8V15.5H11.5438V21.1846ZM11.5623 26.3709C11.6737 27.0723 12.323 27.4414 13.5662 27.4414C15.2731 27.4414 15.5885 27.0723 15.5885 25.4665V24.0454C15.5885 22.4028 15.2731 22.0336 13.5662 22.0336C12.3045 22.0336 11.6551 22.5135 11.5623 23.5102V26.3709ZM20.5053 27.0723C20.5053 24.23 21.1732 23.6947 24.7541 23.6947L28.2793 23.6763V23.0487C28.2793 21.7752 27.9825 21.5538 26.424 21.5538C24.6799 21.5538 24.3645 21.7752 24.4016 23.0487H20.8764V22.6058C20.8764 19.5604 21.6927 18.9883 26.0343 18.9883H26.8878C31.0253 18.9883 31.8046 19.5789 31.8046 22.8088V30.2653H28.2793V28.3089C27.7969 29.7854 26.5538 30.4683 24.8098 30.4867C21.1732 30.5975 20.5053 30.0622 20.5053 27.0723ZM24.2161 27.1092C24.2161 27.8474 24.4944 27.9951 25.9416 27.9951H26.1271C27.6856 27.9582 28.2793 27.626 28.2793 26.7585V26.2786L25.3664 26.2971C24.4016 26.2971 24.2161 26.4263 24.2161 27.1092ZM32.992 26.8139V26.5739H36.3317V26.8139C36.3317 27.6629 36.7956 27.9028 38.5211 27.9028C40.1167 27.9028 40.5434 27.7182 40.5434 27.0538C40.5434 26.6109 40.1538 26.3155 38.5211 26.0202C37.8717 25.891 36.1833 25.6327 35.0701 25.2082C33.5486 24.6175 33.159 23.787 33.159 22.3105C33.159 19.4866 33.9754 18.9883 38.1871 18.9883H39.0406C43.1781 18.9883 43.9573 19.5604 43.9573 22.7165V23.0487H40.4321V22.7165C40.4321 21.8121 40.0425 21.5538 38.6138 21.5538C37.2409 21.5538 36.8698 21.7383 36.8698 22.4212C36.8698 22.8826 37.2037 23.1041 38.4097 23.2887C40.228 23.584 41.0815 23.8055 42.0463 24.0823C43.8089 24.5991 44.2357 25.6142 44.2357 27.3122C44.2357 29.97 43.3822 30.4867 38.7066 30.4867H37.8531C33.7713 30.4867 32.992 29.8961 32.992 26.8139ZM45.3118 24.7467C45.3118 19.8742 46.1653 18.9883 50.7109 18.9883H51.5644C56.1472 18.9883 57.0007 19.8004 57.0007 24.193V25.928H49.0225V25.9833C49.0225 27.5891 49.3565 27.9028 51.1562 27.9028C52.8817 27.9028 53.1972 27.6998 53.1972 26.7585H56.9079C56.9079 29.8961 56.073 30.4867 51.5644 30.4867H50.7109C46.1653 30.4867 45.3118 29.5824 45.3118 24.7467ZM49.0225 23.3256H53.2899C53.2714 21.8306 52.9003 21.5538 51.1562 21.5538C49.3565 21.5538 49.0225 21.8306 49.0225 23.2702V23.3256ZM58.5592 30.2653V19.2098H62.0844V21.3138C62.4741 19.6527 63.4203 18.9883 65.0716 18.9883C67.8918 18.9883 68.5041 19.4312 68.6525 21.5353C69.0607 19.7819 70.1925 18.9883 72.0664 18.9883C75.4618 18.9883 76.0926 19.6343 76.0926 23.1041L76.1112 30.2653H72.5859V23.6393C72.5859 22.1997 72.3447 21.9229 70.9346 21.9229C69.7472 21.9229 69.1349 22.532 69.0978 23.7501L69.1164 30.2653H65.6097V23.6393C65.6097 22.1997 65.3314 21.9229 63.9213 21.9229C62.6967 21.9229 62.0844 22.5689 62.0844 23.8608V30.2653H58.5592ZM77.4841 24.7467C77.4841 19.8742 78.3376 18.9883 82.9019 18.9883H83.7553C88.301 18.9883 89.1545 19.8004 89.1545 24.193V25.928H81.1764V25.9833C81.1764 27.5891 81.5103 27.9028 83.3472 27.9028C85.0541 27.9028 85.3695 27.6998 85.3695 26.7585H89.0617C89.0617 29.8961 88.2268 30.4867 83.7553 30.4867H82.9019C78.3376 30.4867 77.4841 29.5824 77.4841 24.7467ZM81.1764 23.3256H85.4623C85.4437 21.8306 85.0727 21.5538 83.3472 21.5538C81.5103 21.5538 81.1764 21.8306 81.1764 23.2702V23.3256ZM90.6945 30.2653V19.2098H94.2197V21.443C94.6464 19.6527 95.7226 18.9883 97.7635 18.9883C100.992 18.9883 101.604 19.6343 101.604 23.1041L101.623 30.2653H98.0975V23.9347C98.0975 22.2366 97.8006 21.9229 96.1679 21.9229C94.8876 21.9229 94.2383 22.495 94.2197 23.6763V30.2653H90.6945ZM102.532 22.1444V19.2098H103.812V16.8289H107.152V19.2098H110.324V22.1444H107.152V26.0202C107.152 26.9431 107.356 27.1276 108.451 27.1276H110.491V30.2653H108.079C104.35 30.2653 103.626 29.6746 103.626 26.5555V22.1444H102.532ZM111.827 30.2653V27.1276H115V30.2653H111.827Z" fill="white"/>
</g>
</svg>
